<mxfile host="app.diagrams.net" modified="2021-02-05T15:06:56.371Z" agent="5.0 (Macintosh)" etag="6kn_IXQWsjKJeyHUpo4X" version="14.2.9" type="github">
  <diagram id="ujx4PH70cL6c1Upa9DlM" name="Page-1">
    <mxGraphModel dx="521" dy="429" grid="1" gridSize="10" guides="1" tooltips="1" connect="1" arrows="1" fold="1" page="1" pageScale="1" pageWidth="850" pageHeight="1100" math="0" shadow="0">
      <root>
        <mxCell id="0" />
        <mxCell id="1" parent="0" />
        <mxCell id="jixGBMTM5X3Je1htmg4N-1" value="实际全基因组数据的风险预测模型构建" style="rounded=0;whiteSpace=wrap;html=1;" vertex="1" parent="1">
          <mxGeometry x="100" y="60" width="120" height="60" as="geometry" />
        </mxCell>
      </root>
    </mxGraphModel>
  </diagram>
</mxfile>
